<svg width="66" height="37" viewBox="0 0 66 37" fill="none" xmlns="http://www.w3.org/2000/svg">
<path d="M20.6364 11.5568C20.5227 10.3068 20.017 9.33523 19.1193 8.64205C18.233 7.9375 16.9659 7.58523 15.3182 7.58523C14.2273 7.58523 13.3182 7.72727 12.5909 8.01136C11.8636 8.29545 11.3182 8.6875 10.9545 9.1875C10.5909 9.67614 10.4034 10.2386 10.392 10.875C10.3693 11.3977 10.4716 11.858 10.6989 12.2557C10.9375 12.6534 11.2784 13.0057 11.7216 13.3125C12.1761 13.608 12.7216 13.8693 13.358 14.0966C13.9943 14.3239 14.7102 14.5227 15.5057 14.6932L18.5057 15.375C20.233 15.75 21.7557 16.25 23.0739 16.875C24.4034 17.5 25.517 18.2443 26.4148 19.108C27.3239 19.9716 28.0114 20.9659 28.4773 22.0909C28.9432 23.2159 29.1818 24.4773 29.1932 25.875C29.1818 28.0795 28.625 29.9716 27.5227 31.5511C26.4205 33.1307 24.8352 34.3409 22.767 35.1818C20.7102 36.0227 18.2273 36.4432 15.3182 36.4432C12.3977 36.4432 9.85227 36.0057 7.68182 35.1307C5.51136 34.2557 3.82386 32.9261 2.61932 31.142C1.41477 29.358 0.795455 27.1023 0.761364 24.375H8.84091C8.90909 25.5 9.21023 26.4375 9.74432 27.1875C10.2784 27.9375 11.0114 28.5057 11.9432 28.892C12.8864 29.2784 13.9773 29.4716 15.2159 29.4716C16.3523 29.4716 17.3182 29.3182 18.1136 29.0114C18.9205 28.7045 19.5398 28.2784 19.9716 27.733C20.4034 27.1875 20.625 26.5625 20.6364 25.858C20.625 25.1989 20.4205 24.6364 20.0227 24.1705C19.625 23.6932 19.0114 23.2841 18.1818 22.9432C17.3636 22.5909 16.3182 22.267 15.0455 21.9716L11.3977 21.1193C8.375 20.4261 5.99432 19.3068 4.25568 17.7614C2.51705 16.2045 1.65341 14.1023 1.66477 11.4545C1.65341 9.29545 2.23295 7.40341 3.40341 5.77841C4.57386 4.15341 6.19318 2.88636 8.26136 1.97727C10.3295 1.06818 12.6875 0.613635 15.3352 0.613635C18.0398 0.613635 20.3864 1.07386 22.375 1.99432C24.375 2.90341 25.9261 4.18182 27.0284 5.82955C28.1307 7.47727 28.6932 9.38636 28.7159 11.5568H20.6364ZM39.9276 36H30.8594L42.6378 1.09091H53.8707L65.6491 36H56.581L48.3821 9.88636H48.1094L39.9276 36ZM38.7173 22.2614H57.6719V28.6705H38.7173V22.2614Z" fill="#1F2937"/>
</svg>
