<svg width="1377" height="950" viewBox="0 0 1377 950" fill="none" xmlns="http://www.w3.org/2000/svg">
<path d="M15.5 632C10.8333 632 7.16667 630.667 4.5 628C1.83333 626 1.83333 624.333 4.5 623C19.1667 620.333 31.8333 615 42.5 607C53.1667 598.333 61.8333 587.667 68.5 575C82.5 551.667 96.1667 528.333 109.5 505C122.833 481 135.833 457 148.5 433L244.5 256C259.833 228.667 273.167 202.333 284.5 177C296.5 151.667 305.833 133.333 312.5 122C317.167 113.333 325.167 105.667 336.5 99C348.5 91.6666 360.167 86 371.5 82C367.5 82 363.5 82 359.5 82C355.5 81.3333 351.167 81 346.5 81C325.833 81 303.167 82.3333 278.5 85C254.5 87 230.833 90.3333 207.5 95C184.833 99.6666 164.833 106 147.5 114C130.167 122 118.5 131.667 112.5 143C109.833 149 107.5 155 105.5 161C103.5 167 102.5 173 102.5 179C102.5 194.333 107.833 205.333 118.5 212C119.167 212 119.5 212.667 119.5 214C119.5 215.333 118.167 216.667 115.5 218C113.5 219.333 111.5 219.667 109.5 219C103.5 215.667 96.1667 207.667 87.5 195C78.8333 181.667 73.5 170.667 71.5 162C69.5 154 68.5 146.667 68.5 140C68.5 122.667 74.1667 109.333 85.5 100C96.8333 90 111.167 83 128.5 79C145.833 74.3333 163.5 71.6666 181.5 70.9999C200.167 69.6666 216.5 69 230.5 69C251.833 69 277.167 69 306.5 69C335.833 68.3333 362.833 68 387.5 68C393.5 68 400.167 68 407.5 68C414.833 67.3333 422.5 67 430.5 67C448.5 67 467.167 68 486.5 70C505.833 72 523.5 76.3333 539.5 83C555.5 89.6666 567.833 100 576.5 114C585.167 128.667 589.5 144.667 589.5 162C589.5 178.667 586.167 195.333 579.5 212C572.833 228.667 564.833 243 555.5 255C549.5 262.333 542.5 269.667 534.5 277C526.5 284.333 517.5 291.333 507.5 298C497.5 304.667 486.5 311 474.5 317C463.167 322.333 449.5 326.667 433.5 330C432.833 330 432.167 331 431.5 333C431.5 335 432.167 336 433.5 336C436.833 336.667 442.5 337.667 450.5 339C459.167 339.667 466.833 340.667 473.5 342C496.833 346.667 516.167 356.667 531.5 372C547.5 386.667 555.5 406.667 555.5 432C555.5 460.667 547.833 487 532.5 511C517.833 535 498.833 555.667 475.5 573C452.167 589.667 427.833 602.667 402.5 612C370.5 624 333.833 630 292.5 630C267.833 630 242.167 627.667 215.5 623C188.833 618.333 164.5 610.333 142.5 599C137.833 596.333 133.167 594.333 128.5 593C123.833 591 118.833 590 113.5 590C104.167 590 94.1667 592.667 83.5 598C76.8333 600.667 68.1667 605.667 57.5 613C46.8333 620.333 34.8333 626.333 21.5 631C20.1667 631.667 18.1667 632 15.5 632ZM260.5 616C277.833 616 295.167 614.333 312.5 611C329.833 607 345.5 602.333 359.5 597C384.167 587.667 406.833 574.667 427.5 558C448.167 540.667 464.833 520.333 477.5 497C490.833 473 497.5 446.333 497.5 417C497.5 397.667 492.5 383 482.5 373C472.5 362.333 459.833 355 444.5 351C429.167 347 413.167 345 396.5 345C383.833 345 371.833 345.667 360.5 347C349.167 348.333 338.833 350 329.5 352C310.833 355.333 294.167 359 279.5 363C276.833 361.667 277.167 359.333 280.5 356C283.833 352 288.167 347.667 293.5 343C299.5 338.333 304.167 334.667 307.5 332C308.833 330.667 311.5 328.667 315.5 326C320.167 322.667 323.833 321 326.5 321C359.167 321 388.167 319 413.5 315C439.5 311 461.833 301.333 480.5 286C499.167 270 514.5 245.333 526.5 212C532.5 194.667 535.5 177.667 535.5 161C535.5 141.667 530.833 125 521.5 111C512.167 96.3333 497.167 87.6666 476.5 85C473.833 84.3333 470.833 84 467.5 84C464.167 84 460.833 84 457.5 84C444.833 84 430.833 85.6666 415.5 89C400.833 92.3333 389.833 98.6666 382.5 108C365.833 130 349.833 155 334.5 183C319.167 210.333 304.5 238.333 290.5 267C276.5 295 263.167 321.333 250.5 346C235.167 376 219.5 406.333 203.5 437C187.5 467.667 171.833 498.667 156.5 530C152.5 538 150.5 545.667 150.5 553C150.5 566.333 158.833 579.333 175.5 592C186.833 600.667 199.833 607 214.5 611C229.833 614.333 245.167 616 260.5 616ZM666.023 615C646.023 615 632.357 610.333 625.023 601C617.69 591 614.023 579 614.023 565C614.023 546.333 618.023 526.333 626.023 505C634.69 483.667 641.69 467 647.023 455C638.357 464.333 630.023 473.333 622.023 482C614.023 490.667 608.357 497 605.023 501C603.023 503.667 601.357 505 600.023 505C598.69 505 598.023 503.333 598.023 500C598.023 494.667 599.69 489.667 603.023 485C612.357 473 623.023 460.333 635.023 447C647.023 433.667 658.69 419.667 670.023 405C683.357 380.333 698.023 351.667 714.023 319C730.69 285.667 747.69 251.667 765.023 217C783.023 181.667 800.357 149.333 817.023 120C834.357 90 849.69 66 863.023 48C874.357 43.3333 885.023 37.3333 895.023 30C905.69 22.6666 916.023 16 926.023 9.99996C936.69 3.33329 947.69 -3.52859e-05 959.023 -3.52859e-05C966.357 -3.52859e-05 971.69 1.99996 975.023 5.99995C979.023 9.99998 981.69 14.6666 983.023 19.9999C983.69 22 984.023 25.6666 984.023 31C984.023 46.3333 978.69 65 968.023 87C958.023 109 946.023 130.667 932.023 152C918.69 172.667 907.023 189.667 897.023 203C870.357 240.333 843.023 274.333 815.023 305C787.023 335 761.69 360.333 739.023 381C717.023 401 701.023 415.667 691.023 425C686.357 433.667 680.69 445.333 674.023 460C668.023 474 662.69 489 658.023 505C653.357 520.333 651.023 534.667 651.023 548C651.023 559.333 653.69 569 659.023 577C664.357 584.333 673.357 588 686.023 588C688.023 588 690.023 588 692.023 588C694.023 588 696.357 587.667 699.023 587C710.357 585 722.69 578.667 736.023 568C749.357 557.333 762.69 545 776.023 531C789.357 517 801.357 503.667 812.023 491C816.69 485.667 821.023 480.667 825.023 476C829.023 470.667 831.69 467 833.023 465C837.69 469.667 837.357 475.667 832.023 483C827.357 489.667 823.357 495.333 820.023 500C815.357 506 808.69 514.333 800.023 525C791.357 535 781.357 546 770.023 558C757.357 570.667 741.69 583.333 723.023 596C704.357 608.667 685.357 615 666.023 615ZM708.023 385C728.69 367.667 754.69 343 786.023 311C818.023 278.333 849.357 239 880.023 193C883.357 187.667 888.69 178.667 896.023 166C904.023 153.333 912.023 139 920.023 123C928.69 106.333 936.023 90.3333 942.023 75C948.023 59 951.023 45.3333 951.023 33.9999C951.023 23.3333 948.023 18 942.023 18C934.69 18 925.023 24.3333 913.023 37C899.023 51.6666 883.023 73.3333 865.023 102C847.69 130 829.357 161.333 810.023 196C790.69 230.667 772.023 264.667 754.023 298C736.69 331.333 721.357 360.333 708.023 385ZM829.891 615C819.224 615 809.557 613 800.891 609C792.891 604.333 788.891 594.667 788.891 580C788.891 556.667 794.891 533.333 806.891 510C818.891 486 831.224 465 843.891 447C855.224 431.667 867.891 417.333 881.891 404C896.557 390 912.224 378 928.891 368C939.557 361.333 953.891 354.333 971.891 347C990.557 339 1006.22 335 1018.89 335C1029.56 335 1038.89 338 1046.89 344C1054.89 349.333 1058.89 359.333 1058.89 374C1058.89 396.667 1052.89 420 1040.89 444C1029.56 467.333 1017.56 488 1004.89 506C998.891 514 992.891 521.667 986.891 529C980.891 535.667 974.224 542.667 966.891 550C991.557 550 1014.22 543 1034.89 529C1055.56 514.333 1073.56 496.667 1088.89 476L1090.89 474C1092.89 474 1093.89 476 1093.89 480C1093.89 484.667 1092.56 489 1089.89 493C1076.56 511.667 1059.89 528.333 1039.89 543C1019.89 557 997.224 564 971.891 564C969.224 564 966.557 564 963.891 564C961.224 564 958.557 563.667 955.891 563C918.557 597.667 876.557 615 829.891 615ZM855.891 598C865.224 598 875.224 594.667 885.891 588C897.224 581.333 905.891 575 911.891 569C923.224 557.667 933.557 545.667 942.891 533C952.224 519.667 960.891 506.333 968.891 493C978.224 477 987.557 458 996.891 436C1006.22 414 1010.89 393.333 1010.89 374C1010.89 358.667 1005.56 351 994.891 351C986.224 351 975.557 354.667 962.891 362C950.891 369.333 941.891 376 935.891 382C913.224 405.333 894.224 430.667 878.891 458C870.224 473.333 860.891 491.333 850.891 512C840.891 532.667 835.891 551.667 835.891 569C835.891 571.667 835.891 574.333 835.891 577C836.557 579 837.224 581.333 837.891 584C840.557 593.333 846.557 598 855.891 598ZM899.539 963C874.206 963 849.872 957 826.539 945C802.539 933.667 784.872 916 773.539 892C768.872 883.333 765.872 874 764.539 864C763.206 854.667 762.539 845.333 762.539 836V826C762.539 820.667 763.206 815.667 764.539 811C765.872 806.333 769.539 804 775.539 804C776.872 804 777.539 804.667 777.539 806C777.539 810 777.206 814 776.539 818C775.872 822 775.539 826.333 775.539 831C775.539 861.667 785.539 885 805.539 901C824.872 917 849.206 925 878.539 925C890.539 925 902.872 923.667 915.539 921C928.206 918.333 939.872 914.667 950.539 910C993.206 892 1030.21 866 1061.54 832C1093.54 798 1121.21 759.667 1144.54 717C1168.54 674.333 1189.54 630.667 1207.54 586C1226.21 540.667 1243.54 498 1259.54 458C1245.54 480.667 1230.21 501 1213.54 519C1196.87 536.333 1178.21 553.667 1157.54 571C1144.87 581.667 1130.87 591.667 1115.54 601C1100.87 610.333 1084.87 615 1067.54 615C1060.87 615 1056.21 613 1053.54 609C1050.87 604.333 1049.54 599 1049.54 593V586C1052.87 560 1061.21 533 1074.54 505C1088.54 477 1105.21 450.667 1124.54 426C1143.87 401.333 1163.54 381.333 1183.54 366C1206.21 348.667 1231.21 340 1258.54 340H1373.54C1376.87 340 1378.54 341.333 1378.54 344C1378.54 349.333 1375.54 352 1369.54 352C1362.21 352 1355.21 355 1348.54 361C1341.87 367 1336.87 372.667 1333.54 378C1326.87 388.667 1318.21 405 1307.54 427C1296.87 449 1285.21 474.333 1272.54 503C1259.87 531 1247.21 559.667 1234.54 589C1221.87 617.667 1210.21 644.667 1199.54 670C1183.54 708 1165.21 745 1144.54 781C1124.54 817.667 1100.54 850.333 1072.54 879C1045.21 908.333 1012.54 931.333 974.539 948C951.872 958 926.872 963 899.539 963ZM1108.54 581C1116.54 581 1127.54 575.333 1141.54 564C1155.54 552 1170.87 537.333 1187.54 520C1204.21 502 1219.87 483.333 1234.54 464C1249.21 444 1261.21 426 1270.54 410C1280.54 393.333 1285.54 380.667 1285.54 372C1285.54 364.667 1283.21 359.667 1278.54 357C1274.54 354.333 1269.21 353 1262.54 353C1251.87 353 1240.54 357 1228.54 365C1216.54 372.333 1206.87 379.667 1199.54 387C1191.54 394.333 1181.87 406 1170.54 422C1159.87 437.333 1148.87 454.333 1137.54 473C1126.87 491.667 1117.87 509.667 1110.54 527C1103.21 544.333 1099.54 558.333 1099.54 569C1099.54 577 1102.54 581 1108.54 581Z" fill="white"/>
</svg>
