<svg width="1660" height="596" viewBox="0 0 1660 596" fill="none" xmlns="http://www.w3.org/2000/svg">
<path d="M183 596C159.667 596 135 592.333 109 585C83.6667 578.333 61 567 41 551C21.6667 535 8.66667 513.667 2 487C1.33333 483.667 0.666668 480 2.5034e-06 476C2.5034e-06 472 2.5034e-06 468 2.5034e-06 464C2.5034e-06 443.333 4.66667 423.333 14 404C23.3333 384.667 34.6667 370 48 360H49C50.3333 360 52 361.667 54 365C56.6667 367.667 56.6667 369.667 54 371C47.3333 377.667 42.3333 385.333 39 394C36.3333 402 35 410.667 35 420C35 432.667 37 445.667 41 459C45.6667 471.667 51.3333 482.667 58 492C74.6667 515.333 97.6667 534 127 548C157 561.333 186.333 568 215 568C254.333 568 284.667 556.333 306 533C328 509.667 339 481 339 447C339 426.333 335 405.667 327 385C316.333 356.333 302 328.333 284 301C266.667 273 250.667 245.667 236 219C223.333 195 217 170.667 217 146C217 120 225 95 241 71C257 49.6667 278 32.6666 304 19.9999C330.667 6.66662 357.667 -3.62396e-05 385 -3.62396e-05C403.667 -3.62396e-05 421.667 3.33329 439 9.99995C456.333 16.6666 472 27.6666 486 42.9999C490 48.9999 492 56.6666 492 66C492 79.3333 489.333 89.6666 484 97C478 105.667 471.333 117 464 131C456.667 145 452.333 154.667 451 160C449.667 160.667 446.333 162 441 164C436.333 165.333 433.333 165 432 163C434.667 157.667 438.333 148 443 134C447.667 120 450 107.333 450 96C450 88.6666 449.667 80.6666 449 72C449 62.6667 444.667 54.6667 436 48C428 40.6666 417.667 34.3333 405 28.9999C392.333 23.6666 377 21 359 21C322.333 21 294.333 31.6667 275 53C255.667 74.3333 246 97.6666 246 123C246 135.667 248.667 148.333 254 161C264 185 278 207.667 296 229C314 250.333 331.667 272.333 349 295C367 317 381 341 391 367C397.667 384.333 401 402 401 420C401 446 394.333 469.667 381 491C368.333 512.333 351 531 329 547C307.667 562.333 284.333 574.333 259 583C233.667 591.667 208.333 596 183 596ZM463.172 564C452.505 564 442.839 562 434.172 558C426.172 553.333 422.172 543.667 422.172 529C422.172 505.667 428.172 482.333 440.172 459C452.172 435 464.505 414 477.172 396C488.505 380.667 501.172 366.333 515.172 353C529.839 339 545.505 327 562.172 317C572.839 310.333 587.172 303.333 605.172 296C623.839 288 639.505 284 652.172 284C662.839 284 672.172 287 680.172 293C688.172 298.333 692.172 308.333 692.172 323C692.172 345.667 686.172 369 674.172 393C662.839 416.333 650.839 437 638.172 455C632.172 463 626.172 470.667 620.172 478C614.172 484.667 607.505 491.667 600.172 499C624.839 499 647.505 492 668.172 478C688.839 463.333 706.839 445.667 722.172 425L724.172 423C726.172 423 727.172 425 727.172 429C727.172 433.667 725.839 438 723.172 442C709.839 460.667 693.172 477.333 673.172 492C653.172 506 630.505 513 605.172 513C602.505 513 599.839 513 597.172 513C594.505 513 591.839 512.667 589.172 512C551.839 546.667 509.839 564 463.172 564ZM489.172 547C498.505 547 508.505 543.667 519.172 537C530.505 530.333 539.172 524 545.172 518C556.505 506.667 566.839 494.667 576.172 482C585.505 468.667 594.172 455.333 602.172 442C611.505 426 620.839 407 630.172 385C639.505 363 644.172 342.333 644.172 323C644.172 307.667 638.839 300 628.172 300C619.505 300 608.839 303.667 596.172 311C584.172 318.333 575.172 325 569.172 331C546.505 354.333 527.505 379.667 512.172 407C503.505 422.333 494.172 440.333 484.172 461C474.172 481.667 469.172 500.667 469.172 518C469.172 520.667 469.172 523.333 469.172 526C469.839 528 470.505 530.333 471.172 533C473.839 542.333 479.839 547 489.172 547ZM717.82 577C715.154 577 715.154 574 717.82 568C721.154 562 724.154 555.333 726.82 548C730.154 540.667 733.487 532.667 736.82 524C743.487 508 750.82 490 758.82 470C766.82 450 774.487 430.667 781.82 412C789.154 392.667 795.487 376.333 800.82 363C806.82 349 810.82 340 812.82 336C803.487 346 792.154 358.667 778.82 374C766.154 388.667 754.154 403 742.82 417C731.487 431 722.82 442 716.82 450C714.82 452.667 713.154 454 711.82 454C710.487 454 709.82 452.333 709.82 449C709.82 443.667 711.487 438.667 714.82 434C727.487 418 741.487 400 756.82 380C772.82 360 787.154 341.667 799.82 325C812.487 307.667 820.487 296.333 823.82 291C831.154 289.667 841.82 287.667 855.82 285C870.487 282.333 880.487 278.667 885.82 274C887.82 272 889.82 271 891.82 271C893.154 271 893.82 272.333 893.82 275C894.487 277 893.82 279.333 891.82 282C887.82 286.667 880.82 297.667 870.82 315C861.487 331.667 851.154 350.333 839.82 371C829.154 391.667 819.154 410.333 809.82 427C820.487 414.333 830.82 402.333 840.82 391C851.487 379.667 858.82 371.667 862.82 367C870.82 359 881.82 349 895.82 337C909.82 325 924.487 314 939.82 304C955.154 294 968.487 288.333 979.82 287C982.487 286.333 984.82 286 986.82 286C988.82 286 990.82 286 992.82 286C1005.49 286 1011.82 290.667 1011.82 300C1011.82 304 1010.82 308.667 1008.82 314C1006.82 319.333 1004.15 324.667 1000.82 330C996.82 338 990.154 350.667 980.82 368C971.487 384.667 963.154 400 955.82 414L1002.82 367C1010.82 359 1021.82 349 1035.82 337C1049.82 325 1064.49 314 1079.82 304C1095.15 294 1108.49 288.333 1119.82 287C1122.49 286.333 1124.82 286 1126.82 286C1129.49 286 1131.49 286 1132.82 286C1147.49 286 1154.82 291.333 1154.82 302C1154.82 310 1150.49 320.667 1141.82 334C1137.15 341.333 1129.82 353.667 1119.82 371C1109.82 388.333 1099.49 407.333 1088.82 428C1078.82 448 1070.15 466.667 1062.82 484C1055.49 501.333 1051.82 514 1051.82 522C1051.82 531.333 1056.49 536 1065.82 536C1074.49 536 1085.49 531 1098.82 521C1112.82 510.333 1126.82 497.667 1140.82 483C1155.49 468.333 1168.15 454.333 1178.82 441C1183.49 435.667 1187.82 430.333 1191.82 425C1196.49 419 1199.15 415.667 1199.82 415C1201.15 416.333 1201.82 418.667 1201.82 422C1201.82 426.667 1200.15 431.333 1196.82 436C1194.15 440 1191.49 443.667 1188.82 447C1176.15 463.667 1161.49 481 1144.82 499C1128.82 517 1111.15 532.333 1091.82 545C1072.49 557 1051.82 564 1029.82 566C1023.15 566.667 1016.49 565.333 1009.82 562C1003.15 558.667 999.82 553.333 999.82 546C999.82 536.667 1002.15 525.667 1006.82 513C1012.15 500.333 1017.82 487.667 1023.82 475C1030.49 462.333 1035.49 452 1038.82 444C1050.82 420.667 1061.82 398.667 1071.82 378C1081.82 357.333 1088.82 342.667 1092.82 334C1094.82 330 1095.82 326.667 1095.82 324C1095.82 319.333 1092.15 319 1084.82 323C1077.49 327 1068.49 333 1057.82 341C1047.82 349 1038.49 357 1029.82 365C1021.15 372.333 1015.49 377.333 1012.82 380C1001.49 391.333 987.82 406.667 971.82 426C956.487 445.333 942.154 465.667 928.82 487C915.487 507.667 906.154 527 900.82 545C894.154 551 887.82 554 881.82 554C877.154 554 873.154 552.333 869.82 549C867.154 545.667 865.82 541.667 865.82 537C865.82 523.667 869.82 508 877.82 490C886.487 471.333 893.487 456 898.82 444C910.82 420.667 921.82 398.667 931.82 378C941.82 357.333 948.82 342.667 952.82 334C954.82 330 955.82 326.667 955.82 324C955.82 319.333 952.154 319 944.82 323C937.487 327 928.487 333 917.82 341C907.82 349 898.487 357 889.82 365C881.154 372.333 875.487 377.333 872.82 380C856.82 396.667 841.82 413.667 827.82 431C814.487 448.333 803.154 467 793.82 487C788.487 499 782.82 512.333 776.82 527C770.82 541.667 765.82 554 761.82 564C753.154 564.667 744.487 567 735.82 571C727.154 575 721.154 577 717.82 577ZM1221.55 565C1214.88 565 1209.21 563.667 1204.55 561C1199.88 558.333 1197.55 553.333 1197.55 546C1197.55 536.667 1199.88 525.667 1204.55 513C1209.88 500.333 1215.55 487.667 1221.55 475C1227.55 462.333 1232.55 452 1236.55 444C1239.88 438 1244.21 428.667 1249.55 416C1255.55 402.667 1261.55 389 1267.55 375C1274.21 360.333 1279.55 348 1283.55 338C1288.21 328 1290.55 323 1290.55 323C1284.55 329.667 1276.55 339 1266.55 351C1257.21 363 1246.88 375.667 1235.55 389C1224.88 401.667 1214.88 413.667 1205.55 425C1196.88 436.333 1190.55 444.667 1186.55 450C1184.55 452.667 1182.88 454 1181.55 454C1180.21 454 1179.55 452.333 1179.55 449C1179.55 443.667 1181.21 438.667 1184.55 434C1192.55 424 1202.21 412 1213.55 398C1224.88 383.333 1236.21 368.667 1247.55 354C1259.55 339.333 1269.88 326.333 1278.55 315C1273.21 315 1266.21 315.333 1257.55 316C1249.55 316.667 1242.21 317.667 1235.55 319C1228.88 319.667 1225.21 320 1224.55 320C1221.21 320 1221.55 317.333 1225.55 312C1229.55 306.667 1234.88 301.333 1241.55 296C1248.21 290.667 1253.21 288 1256.55 288C1257.21 288 1262.55 288.333 1272.55 289C1282.55 289 1289.88 289 1294.55 289C1307.88 271 1320.88 250.333 1333.55 227C1346.88 203.667 1359.88 178 1372.55 150C1377.88 149.333 1386.88 145.667 1399.55 139C1412.88 131.667 1423.21 124.333 1430.55 117C1433.88 113.667 1436.55 112 1438.55 112C1442.55 112 1442.55 114.667 1438.55 120C1433.88 125.333 1425.88 136.667 1414.55 154C1403.21 170.667 1390.55 191 1376.55 215C1362.55 238.333 1349.21 263 1336.55 289H1417.55C1424.88 289 1428.55 290 1428.55 292C1428.55 294.667 1423.55 297.333 1413.55 300C1402.21 303.333 1390.21 305.333 1377.55 306C1365.55 306.667 1354.21 308 1343.55 310C1333.55 312 1326.21 316.333 1321.55 323C1317.55 327.667 1311.88 337.667 1304.55 353C1297.21 368.333 1289.21 386 1280.55 406C1272.55 425.333 1265.55 445 1259.55 465C1253.55 484.333 1249.88 500.667 1248.55 514V518C1248.55 523.333 1250.21 527.667 1253.55 531C1256.88 534.333 1260.21 536 1263.55 536C1272.21 536 1283.21 530.667 1296.55 520C1310.55 509.333 1324.88 496.667 1339.55 482C1354.21 466.667 1366.88 452.667 1377.55 440C1382.21 434.667 1386.21 429.667 1389.55 425C1393.55 420.333 1395.88 417.333 1396.55 416C1397.88 418.667 1398.55 420.667 1398.55 422C1398.55 426 1397.21 430.333 1394.55 435C1392.55 439.667 1390.21 443.667 1387.55 447C1374.88 463.667 1359.55 481.333 1341.55 500C1323.55 518 1304.21 533.333 1283.55 546C1263.55 558.667 1242.88 565 1221.55 565ZM1395.79 564C1385.12 564 1375.46 562 1366.79 558C1358.79 553.333 1354.79 543.667 1354.79 529C1354.79 505.667 1360.79 482.333 1372.79 459C1384.79 435 1397.12 414 1409.79 396C1421.12 380.667 1433.79 366.333 1447.79 353C1462.46 339 1478.12 327 1494.79 317C1505.46 310.333 1519.79 303.333 1537.79 296C1556.46 288 1572.12 284 1584.79 284C1595.46 284 1604.79 287 1612.79 293C1620.79 298.333 1624.79 308.333 1624.79 323C1624.79 345.667 1618.79 369 1606.79 393C1595.46 416.333 1583.46 437 1570.79 455C1564.79 463 1558.79 470.667 1552.79 478C1546.79 484.667 1540.12 491.667 1532.79 499C1557.46 499 1580.12 492 1600.79 478C1621.46 463.333 1639.46 445.667 1654.79 425L1656.79 423C1658.79 423 1659.79 425 1659.79 429C1659.79 433.667 1658.46 438 1655.79 442C1642.46 460.667 1625.79 477.333 1605.79 492C1585.79 506 1563.12 513 1537.79 513C1535.12 513 1532.46 513 1529.79 513C1527.12 513 1524.46 512.667 1521.79 512C1484.46 546.667 1442.46 564 1395.79 564ZM1421.79 547C1431.12 547 1441.12 543.667 1451.79 537C1463.12 530.333 1471.79 524 1477.79 518C1489.12 506.667 1499.46 494.667 1508.79 482C1518.12 468.667 1526.79 455.333 1534.79 442C1544.12 426 1553.46 407 1562.79 385C1572.12 363 1576.79 342.333 1576.79 323C1576.79 307.667 1571.46 300 1560.79 300C1552.12 300 1541.46 303.667 1528.79 311C1516.79 318.333 1507.79 325 1501.79 331C1479.12 354.333 1460.12 379.667 1444.79 407C1436.12 422.333 1426.79 440.333 1416.79 461C1406.79 481.667 1401.79 500.667 1401.79 518C1401.79 520.667 1401.79 523.333 1401.79 526C1402.46 528 1403.12 530.333 1403.79 533C1406.46 542.333 1412.46 547 1421.79 547Z" fill="#FFFFFF"/>
</svg>
