<svg width="1985" height="661" viewBox="0 0 1985 661" fill="none" xmlns="http://www.w3.org/2000/svg">
<path d="M264 661C258.667 661 254.333 660 251 658C247.667 656.667 246.333 653.333 247 648C247 646 248 643 250 639C252 635 253.333 632 254 630C257.333 620.667 260.333 611.333 263 602C265.667 592 268.333 582.667 271 574C280.333 537.333 289 501 297 465C305 428.333 311.333 391.667 316 355C317.333 345.667 318.333 335 319 323C319.667 310.333 320 297 320 283C320 251 316.667 217 310 181C303.333 145 290.333 115.667 271 92.9999H195C185 92.9999 171 93.6666 153 95C135.667 96.3333 117.667 99.3333 99 104C81 108.667 66 116.333 54 127C42 137.667 36.6667 152 38 170C38.6667 175.333 40.6667 182.667 44 192C47.3333 200.667 49.6667 206 51 208L40 216C36 208.667 31 200.333 25 191C19 181 13.6667 171.333 9 162C4.33333 152.667 1.66667 145.667 1 141C0.333334 134.333 0.666667 125.667 2 115C3.33333 104.333 8.66667 95 18 87C28 78.3333 41.6667 72.6666 59 69.9999C77 67.3333 95.3333 66 114 66C132 66 149.333 66.6667 166 68C182.667 69.3333 196.333 69.9999 207 69.9999C207 69.9999 214.667 69.9999 230 69.9999C245.333 69.9999 264.667 69.9999 288 69.9999C312 69.3333 337.333 69 364 69C390.667 69 415 69 437 69L416 95C396 95 376 95 356 95C336.667 94.3333 317 94 297 94C318.333 108 334 126.333 344 149C354.667 171.667 361.667 195.333 365 220C368.333 244.667 370 267.667 370 289C370 297.667 369.667 306 369 314C369 322 369 329 369 335C367.667 366.333 363.333 404 356 448C348.667 492 339.333 533.667 328 573C350 542.333 374.667 506 402 464C430 421.333 461.333 376.667 496 330C531.333 282.667 569.667 237 611 193C627.667 175.667 645.333 158 664 140C682.667 122 702.667 107 724 95C745.333 83 768.333 77 793 77C814.333 77 830.667 80.3333 842 87L836 98C833.333 97.3333 830.667 97 828 97C826 96.3333 823.333 96 820 96C801.333 96 781.333 101.667 760 113C739.333 124.333 723.333 135.667 712 147C691.333 167.667 675.333 192.333 664 221C652.667 249 644.333 279 639 311C634.333 342.333 630.667 374.333 628 407C625.333 439 622.667 469.333 620 498C618 526.667 614 551.667 608 573C635.333 534.333 669 488.333 709 435C749.667 381.667 796 326.333 848 269C900 211 957 156 1019 104C1031.67 93.3333 1048 81.3333 1068 68C1088.67 54.6666 1110.33 43.3333 1133 34C1156.33 24 1178.33 18.9999 1199 18.9999C1218.33 18.9999 1231.67 22.3333 1239 29C1247 35.6667 1251 44.3333 1251 55C1251 67.6666 1247 81.6666 1239 97C1231.67 112.333 1226 125 1222 135C1221.33 137 1218.33 138.333 1213 139C1207.67 139.667 1205.33 138.667 1206 136C1207.33 130.667 1208.67 124.333 1210 117C1212 109 1213 101 1213 92.9999C1213 82.3333 1211 72.6666 1207 64C1203 55.3333 1195.33 50.3333 1184 49C1182 48.3333 1180 48 1178 48C1176 48 1174 48 1172 48C1153.33 48 1133 54.6666 1111 68C1089 80.6666 1063.67 98.6666 1035 122C979 166.667 925.333 216 874 270C822.667 323.333 774 379.333 728 438C704 468 680.667 498.333 658 529C635.333 559.667 614.333 591.667 595 625C593.667 627.667 592.333 630.667 591 634C590.333 638 589.333 641 588 643C586.667 644.333 582.667 646.333 576 649C569.333 652.333 562.667 655 556 657C550 659.667 546 661 544 661C538.667 661 534.333 660 531 658C527.667 656.667 526.333 653.333 527 648C527 646 528 643 530 639C532 635 533.333 632 534 630C537.333 620.667 540.333 611.333 543 602C545.667 592 548.333 582.667 551 574C559 544.667 564.667 513.667 568 481C572 448.333 575.667 415.667 579 383C583 349.667 589 317.667 597 287C605 256.333 617.333 228.667 634 204C620.667 212 601.667 231.667 577 263C552.333 293.667 522.333 331 487 375C475 389.667 461.667 408 447 430C432.333 451.333 417.333 474 402 498C387.333 521.333 373 544.333 359 567C345.667 589 334.333 608.333 325 625C323.667 627.667 322.333 630.667 321 634C320.333 638 319.333 641 318 643C316.667 644.333 311.667 646.333 303 649C295 652.333 287 655 279 657C271 659.667 266 661 264 661ZM928.602 614C917.935 614 908.268 612 899.602 608C891.602 603.333 887.602 593.667 887.602 579C887.602 555.667 893.602 532.333 905.602 509C917.602 485 929.935 464 942.602 446C953.935 430.667 966.602 416.333 980.602 403C995.268 389 1010.93 377 1027.6 367C1038.27 360.333 1052.6 353.333 1070.6 346C1089.27 338 1104.93 334 1117.6 334C1128.27 334 1137.6 337 1145.6 343C1153.6 348.333 1157.6 358.333 1157.6 373C1157.6 395.667 1151.6 419 1139.6 443C1128.27 466.333 1116.27 487 1103.6 505C1097.6 513 1091.6 520.667 1085.6 528C1079.6 534.667 1072.93 541.667 1065.6 549C1090.27 549 1112.93 542 1133.6 528C1154.27 513.333 1172.27 495.667 1187.6 475L1189.6 473C1191.6 473 1192.6 475 1192.6 479C1192.6 483.667 1191.27 488 1188.6 492C1175.27 510.667 1158.6 527.333 1138.6 542C1118.6 556 1095.93 563 1070.6 563C1067.93 563 1065.27 563 1062.6 563C1059.93 563 1057.27 562.667 1054.6 562C1017.27 596.667 975.268 614 928.602 614ZM954.602 597C963.935 597 973.935 593.667 984.602 587C995.935 580.333 1004.6 574 1010.6 568C1021.93 556.667 1032.27 544.667 1041.6 532C1050.93 518.667 1059.6 505.333 1067.6 492C1076.93 476 1086.27 457 1095.6 435C1104.93 413 1109.6 392.333 1109.6 373C1109.6 357.667 1104.27 350 1093.6 350C1084.93 350 1074.27 353.667 1061.6 361C1049.6 368.333 1040.6 375 1034.6 381C1011.93 404.333 992.935 429.667 977.602 457C968.935 472.333 959.602 490.333 949.602 511C939.602 531.667 934.602 550.667 934.602 568C934.602 570.667 934.602 573.333 934.602 576C935.268 578 935.935 580.333 936.602 583C939.268 592.333 945.268 597 954.602 597ZM1183.25 626C1180.58 626 1180.58 623.333 1183.25 618C1186.58 612 1189.58 605.333 1192.25 598C1195.58 590.667 1198.92 582.667 1202.25 574C1208.92 558 1216.25 540 1224.25 520C1232.25 500 1239.92 480.667 1247.25 462C1254.58 442.667 1260.92 426.333 1266.25 413C1272.25 399 1276.25 390 1278.25 386C1268.92 396 1257.58 408.667 1244.25 424C1231.58 438.667 1219.58 453 1208.25 467C1196.92 481 1188.25 492 1182.25 500C1180.25 502.667 1178.58 504 1177.25 504C1175.92 504 1175.25 502.333 1175.25 499C1175.25 493.667 1176.92 488.667 1180.25 484C1192.92 468 1206.92 450 1222.25 430C1238.25 410 1252.58 391.667 1265.25 375C1277.92 357.667 1285.92 346.333 1289.25 341C1296.58 339.667 1307.25 337.667 1321.25 335C1335.92 332.333 1345.92 328.667 1351.25 324C1353.25 322 1355.25 321 1357.25 321C1358.58 321 1359.25 322.333 1359.25 325C1359.92 327 1359.25 329.333 1357.25 332C1353.25 336 1347.25 344.667 1339.25 358C1331.92 371.333 1323.58 386.667 1314.25 404C1304.92 421.333 1295.92 438 1287.25 454C1293.92 444 1302.58 432.333 1313.25 419C1324.58 405 1336.92 391.667 1350.25 379C1363.58 365.667 1376.92 354.667 1390.25 346C1404.25 337.333 1417.25 333 1429.25 333C1437.92 333 1445.25 335 1451.25 339C1457.25 342.333 1461.92 348.667 1465.25 358C1467.25 362.667 1468.25 368 1468.25 374C1468.25 385.333 1465.25 396.333 1459.25 407C1453.92 417 1449.92 424.667 1447.25 430C1446.58 432 1444.25 434 1440.25 436C1436.25 437.333 1434.58 436.667 1435.25 434C1435.92 430.667 1436.25 427.333 1436.25 424C1436.92 420.667 1437.25 417 1437.25 413C1437.25 401.667 1434.92 391.333 1430.25 382C1426.25 372.667 1418.58 368 1407.25 368C1396.58 368 1383.58 374.667 1368.25 388C1352.92 401.333 1337.58 416.667 1322.25 434C1302.92 456.667 1287.58 478.333 1276.25 499C1264.92 519 1255.58 538.667 1248.25 558C1244.25 568.667 1240.25 579.333 1236.25 590C1232.25 600 1229.25 608 1227.25 614C1218.58 614.667 1209.92 616.667 1201.25 620C1192.58 624 1186.58 626 1183.25 626ZM1628.71 617C1612.04 617 1599.38 611.333 1590.71 600C1585.38 592 1580.04 580 1574.71 564C1569.38 548 1564.71 531.333 1560.71 514C1556.71 496.667 1553.38 482.667 1550.71 472C1532.04 496 1515.38 520 1500.71 544C1486.71 568 1477.38 586.667 1472.71 600C1471.38 604 1466.71 607.333 1458.71 610C1451.38 612.667 1444.04 614 1436.71 614C1426.04 614 1422.04 610.667 1424.71 604C1445.38 558 1465.04 513.667 1483.71 471C1502.38 428.333 1522.04 385.333 1542.71 342C1564.04 298.667 1588.04 253.667 1614.71 207C1633.38 173 1655.71 140.333 1681.71 109C1708.38 77 1736.71 51 1766.71 31C1796.71 10.3333 1827.04 -4.81606e-05 1857.71 -4.81606e-05C1867.71 -4.81606e-05 1877.04 2.66662 1885.71 7.99997C1894.38 13.3333 1898.71 21.6666 1898.71 32.9999V62C1898.71 64.6667 1896.71 66 1892.71 66C1890.71 66 1889.71 65.3333 1889.71 64C1889.71 53.3333 1885.04 46.3333 1875.71 43C1866.38 39 1857.38 37 1848.71 37C1825.38 37 1801.71 41.6666 1777.71 51C1751.04 61.6666 1728.71 77.6667 1710.71 99C1692.71 120.333 1676.04 143 1660.71 167C1640.71 197.667 1621.04 233.667 1601.71 275C1582.38 315.667 1564.38 356.667 1547.71 398C1531.71 439.333 1517.38 476.667 1504.71 510C1512.04 500.667 1519.38 491.333 1526.71 482C1534.04 472.667 1541.04 464 1547.71 456C1547.71 454.667 1547.38 453.333 1546.71 452C1546.71 450.667 1546.71 449.333 1546.71 448C1546.71 443.333 1547.71 439.333 1549.71 436C1551.71 432.667 1554.38 428.667 1557.71 424C1562.38 417.333 1566.71 412.333 1570.71 409C1574.71 405 1579.04 400 1583.71 394L1586.71 411C1616.04 381 1641.71 359.333 1663.71 346C1679.04 336.667 1694.04 332 1708.71 332C1723.38 332 1730.71 337.667 1730.71 349C1730.71 358.333 1726.04 370 1716.71 384C1713.38 388.667 1711.38 392 1710.71 394C1710.04 396 1708.71 398 1706.71 400C1706.04 400.667 1704.71 400.667 1702.71 400C1700.71 399.333 1699.71 398.333 1699.71 397C1699.71 389 1697.04 384 1691.71 382C1686.38 379.333 1680.38 378 1673.71 378C1661.04 378 1647.38 382.667 1632.71 392C1618.71 400.667 1604.38 412.667 1589.71 428C1593.04 444.667 1596.71 463 1600.71 483C1605.38 502.333 1610.38 520.333 1615.71 537C1621.04 553.667 1626.04 566 1630.71 574C1634.04 579.333 1638.71 583 1644.71 585C1650.71 586.333 1655.71 587 1659.71 587C1669.04 587 1679.71 582.333 1691.71 573C1704.38 563 1717.04 551.333 1729.71 538C1743.04 524 1755.04 510.333 1765.71 497C1777.04 483.667 1785.71 473 1791.71 465C1794.38 468.333 1795.04 471.667 1793.71 475C1793.04 479 1791.04 483.333 1787.71 488C1785.04 492 1782.38 495.667 1779.71 499C1766.38 515.667 1752.04 532.667 1736.71 550C1721.38 566.667 1705.04 581.667 1687.71 595C1680.38 601 1671.38 606.333 1660.71 611C1650.04 615 1639.38 617 1628.71 617ZM1833.93 628C1821.93 628 1809.26 626.333 1795.93 623C1782.6 619.667 1770.6 614.333 1759.93 607C1749.93 599 1743.26 588.333 1739.93 575C1739.26 573 1738.93 570 1738.93 566C1738.93 556.667 1740.93 546.333 1744.93 535C1749.6 523.667 1755.26 515.667 1761.93 511C1764.6 509.667 1766.6 509.667 1767.93 511C1769.93 512.333 1770.26 513.667 1768.93 515C1768.26 517 1767.26 519.667 1765.93 523C1764.6 525.667 1763.6 528.667 1762.93 532C1760.93 549.333 1764.6 564.667 1773.93 578C1777.93 583.333 1782.6 588.333 1787.93 593C1793.93 597.667 1799.6 601.667 1804.93 605C1809.6 607.667 1815.26 609.667 1821.93 611C1828.6 611.667 1835.26 612 1841.93 612C1852.6 612 1862.93 610.667 1872.93 608C1882.93 605.333 1890.26 601 1894.93 595C1903.6 584.333 1907.93 572.333 1907.93 559C1907.93 549 1905.26 538.333 1899.93 527C1894.6 515.667 1886.26 503.667 1874.93 491C1867.6 483 1860.6 474.333 1853.93 465C1847.26 455.667 1842.93 445.667 1840.93 435C1840.26 433 1839.6 431 1838.93 429C1838.93 427 1838.93 425 1838.93 423C1830.26 435.667 1821.26 447.667 1811.93 459C1803.26 469.667 1795.6 479 1788.93 487C1786.26 491 1783.93 493 1781.93 493C1780.6 493 1779.93 491.667 1779.93 489C1779.93 483 1782.6 476.667 1787.93 470C1793.26 464 1799.26 456.667 1805.93 448C1812.6 438.667 1817.93 431.333 1821.93 426C1833.26 409.333 1841.6 396.333 1846.93 387C1852.93 377 1859.26 368 1865.93 360C1873.26 351.333 1882.26 344.333 1892.93 339C1904.26 333.667 1915.93 331 1927.93 331C1941.93 331 1954.6 333.333 1965.93 338C1977.93 342 1984.26 352.667 1984.93 370C1984.93 378 1983.26 386.333 1979.93 395C1977.26 403 1974.26 410.667 1970.93 418C1968.93 422 1965.93 425 1961.93 427C1958.6 428.333 1956.93 427.667 1956.93 425C1956.93 422.333 1957.26 419.333 1957.93 416C1958.6 412.667 1958.93 409.667 1958.93 407C1958.93 395.667 1956.93 385.667 1952.93 377C1949.6 367.667 1944.6 361 1937.93 357C1931.26 352.333 1924.26 350 1916.93 350C1906.26 350 1895.93 354.333 1885.93 363C1875.93 371 1870.93 381.667 1870.93 395C1870.93 396.333 1870.93 398 1870.93 400C1870.93 402 1871.26 403.667 1871.93 405C1874.6 415.667 1882.6 427.667 1895.93 441C1909.26 454.333 1919.6 466 1926.93 476C1939.6 493.333 1945.93 511 1945.93 529C1945.93 547 1940.6 563.667 1929.93 579C1919.93 593.667 1906.26 605.333 1888.93 614C1872.26 623.333 1853.93 628 1833.93 628Z" fill="#D1FAE5"/>
</svg>
